<svg xmlns="http://www.w3.org/2000/svg" width="55.973" height="55.973" viewBox="0 0 55.973 55.973">
  <path id="Path_161" data-name="Path 161" d="M136.825,230.582a27.987,27.987,0,1,0-27.987,27.988A27.986,27.986,0,0,0,136.825,230.582Zm-12.391-9.033a.765.765,0,1,1,.817.715A.77.77,0,0,1,124.434,221.549Zm2.435-3.181-.3,1.326-.356-1.326-1.212-.35,1.214-.4.354-1.278.305,1.28,1.261.4Zm-1.439-7.492.478,2.01,1.981.625-1.982.552-.477,2.081-.558-2.081-1.9-.552,1.9-.625Zm-1.49,12.259a1,1,0,1,1-1.066-.932A1,1,0,0,1,123.941,223.135Zm-4.211-14.012.733-3.138.632,3.141,2.608.974-2.614.862-.627,3.251-.739-3.251-2.5-.862Zm-2.982,14.946a1.262,1.262,0,1,1,1.162-1.35A1.25,1.25,0,0,1,116.748,224.069Zm.48,2.586a1.575,1.575,0,1,1-1.68-1.467A1.587,1.587,0,0,1,117.228,226.655Zm1.552.748a1.586,1.586,0,1,1-1.461,1.7A1.571,1.571,0,0,1,118.781,227.4Zm1.212-2.426a1.21,1.21,0,1,1,1.113-1.293A1.2,1.2,0,0,1,119.993,224.977Zm-4.1-11.159a2.545,2.545,0,1,1-2.342,2.724A2.526,2.526,0,0,1,115.891,213.818Zm-2.618,6.088a1.516,1.516,0,0,1,1.624,1.415,1.522,1.522,0,1,1-1.624-1.415Zm.263,4.783a1.431,1.431,0,0,1-1.314,1.525,1.426,1.426,0,1,1,1.314-1.525Zm-3.549-6.669a1.532,1.532,0,1,1-1.41,1.639A1.534,1.534,0,0,1,109.986,218.021Zm.1,5.247A1.359,1.359,0,1,1,108.639,222,1.366,1.366,0,0,1,110.088,223.267Zm-1.253-6.483a1.721,1.721,0,1,1-1.838-1.6A1.736,1.736,0,0,1,108.834,216.784Zm-2.322,5.792a1.268,1.268,0,1,1-1.354-1.183A1.274,1.274,0,0,1,106.512,222.577Zm-.622-8.711a1.719,1.719,0,1,1-1.834-1.6A1.73,1.73,0,0,1,105.89,213.866Zm-2.8,8.871a1,1,0,1,1-1.069-.932A1.005,1.005,0,0,1,103.091,222.737Zm-1.813-13.95a1.921,1.921,0,1,1-1.765,2.054A1.907,1.907,0,0,1,101.279,208.787ZM99.011,222.6a.77.77,0,1,1-.708.824A.77.77,0,0,1,99.011,222.6Zm-2.361.848a.77.77,0,1,1-.707.823A.762.762,0,0,1,96.65,223.447Zm-1.95,1.348a.615.615,0,1,1-.565.658A.611.611,0,0,1,94.7,224.795Zm27.366,4.847a1.962,1.962,0,1,1-1.808,2.1A1.969,1.969,0,0,1,122.065,229.641Zm-24.22,21.9a8.658,8.658,0,0,1-3.753-.827l.611-2.456a7.565,7.565,0,0,0,3.319.826c1.374,0,2.1-.568,2.1-1.434,0-.825-.629-1.3-2.22-1.847-2.2-.785-3.654-2-3.654-3.929,0-2.258,1.905-3.966,5.011-3.966a7.734,7.734,0,0,1,3.377.668l-.667,2.4a6.179,6.179,0,0,0-2.75-.63c-1.3,0-1.926.61-1.926,1.278,0,.845.727,1.218,2.457,1.867,2.337.863,3.417,2.082,3.417,3.947C103.169,249.659,101.48,251.546,97.845,251.546Zm9.623,0a8.637,8.637,0,0,1-3.751-.827l.608-2.456a7.573,7.573,0,0,0,3.32.826c1.376,0,2.1-.568,2.1-1.434,0-.825-.626-1.3-2.217-1.847-2.2-.785-3.654-2-3.654-3.929,0-2.258,1.905-3.966,5.008-3.966a7.741,7.741,0,0,1,3.378.668l-.668,2.4a6.183,6.183,0,0,0-2.749-.63c-1.3,0-1.924.61-1.924,1.278,0,.845.725,1.218,2.454,1.867,2.337.863,3.417,2.082,3.417,3.947C112.792,249.659,111.1,251.546,107.469,251.546Zm13.632-2.477a7.063,7.063,0,0,0,2.511-.433l.435,2.359a8.786,8.786,0,0,1-3.378.57c-4.577,0-6.934-2.869-6.934-6.64,0-4.519,3.22-7.011,7.229-7.011a7.563,7.563,0,0,1,3.258.585l-.626,2.36a6.312,6.312,0,0,0-2.514-.493c-2.359,0-4.205,1.435-4.205,4.382A3.949,3.949,0,0,0,121.1,249.069ZM125.36,237a1.962,1.962,0,1,1,1.806-2.1A1.946,1.946,0,0,1,125.36,237Z" transform="translate(-80.852 -202.597)" fill="#7f7f7f"/>
</svg>
