<svg xmlns="http://www.w3.org/2000/svg" xmlns:xlink="http://www.w3.org/1999/xlink" width="74.336" height="94.952" viewBox="0 0 74.336 94.952">
  <defs>
    <linearGradient id="linear-gradient" x1="0.5" x2="0.5" y2="1" gradientUnits="objectBoundingBox">
      <stop offset="0" stop-color="#00afac"/>
      <stop offset="0.1" stop-color="#00a1a5"/>
      <stop offset="0.2" stop-color="#00929d"/>
      <stop offset="0.3" stop-color="#008395"/>
      <stop offset="0.4" stop-color="#00748d"/>
      <stop offset="0.5" stop-color="#006686"/>
      <stop offset="0.6" stop-color="#00577e"/>
      <stop offset="0.7" stop-color="#004876"/>
      <stop offset="0.8" stop-color="#00396e"/>
      <stop offset="0.9" stop-color="#002b66"/>
      <stop offset="1" stop-color="#001d60"/>
    </linearGradient>
    <clipPath id="clip-path">
      <rect id="Rectangle_436" data-name="Rectangle 436" width="74.336" height="94.952" transform="translate(0 0)" fill="url(#linear-gradient)"/>
    </clipPath>
  </defs>
  <g id="Group_10643" data-name="Group 10643" transform="translate(0 0)">
    <g id="Group_10642" data-name="Group 10642" clip-path="url(#clip-path)">
      <path id="Path_10013" data-name="Path 10013" d="M37.022,56.557a19.3,19.3,0,1,1,19.3-19.3,19.313,19.313,0,0,1-19.3,19.3m33.1-36.1a37.1,37.1,0,0,0-49.8-16.5c-18.3,9.2-25.4,32.3-16.5,49.8,4.2,8.3,21.7,29.9,29.4,39.4a4.809,4.809,0,0,0,7.5,0c7.7-9.5,25-31.1,29.5-39.4,5.6-10.2,5.4-22.4-.1-33.3Z" fill="url(#linear-gradient)"/>
    </g>
  </g>
</svg>
