<?xml version="1.0" encoding="UTF-8"?><svg xmlns="http://www.w3.org/2000/svg" viewBox="0 0 32 29.38"><defs><style>.f{fill:#f4f4f4;}.g{fill:#fff;}</style></defs><g id="a"/><g id="b"><g id="c"><g><path id="d" class="g" d="M25.69,29.38c-.18,0-.36-.06-.5-.18l-7.41-5.68c-.21-.16-.46-.25-.72-.25-.28,0-.56,.1-.77,.29l-4.12,3.54c-.15,.13-.35,.21-.55,.21-.39,0-.73-.27-.83-.64l-2.85-9.68L.56,14.09c-.47-.21-.69-.76-.48-1.23,.09-.21,.27-.39,.48-.48L30.81,.06c.1-.04,.21-.06,.32-.06,.26,0,.5,.12,.66,.32,.18,.22,.25,.51,.2,.78l-5.44,27.54c-.07,.42-.43,.72-.85,.73"/><path id="e" class="f" d="M10.33,15.44L24.74,6.08c.26-.17,.53,.2,.3,.42l-11.89,11.66c-.42,.42-.69,.97-.76,1.55l-.4,3.16c-.01,.2-.19,.36-.39,.34-.16-.01-.3-.13-.34-.29l-1.56-5.77c-.18-.65,.08-1.34,.63-1.72"/></g></g></g></svg>